<svg width="43" height="69" viewBox="0 0 43 69" fill="none" xmlns="http://www.w3.org/2000/svg">
<g clip-path="url(#clip0_1_77)">
<path d="M34.3999 6.46875C34.3999 10.04 31.5108 12.9375 27.9499 12.9375C24.3889 12.9375 21.4999 10.04 21.4999 6.46875C21.4999 2.89746 24.3889 0 27.9499 0C31.5108 0 34.3999 2.89746 34.3999 6.46875ZM16.9983 26.8588C16.8639 26.9127 16.743 26.9666 16.6086 27.0205L15.5336 27.4922C13.3299 28.476 11.6367 30.3492 10.8708 32.6402L10.5214 33.6914C9.76892 35.9555 7.33673 37.1684 5.07923 36.4137C2.82173 35.659 1.61235 33.2197 2.36485 30.9557L2.71423 29.9045C4.2461 25.309 7.63235 21.5625 12.0399 19.5949L13.1149 19.1232C15.9099 17.8834 18.9333 17.2365 21.997 17.2365C27.9902 17.2365 33.392 20.8482 35.6899 26.3871L37.7592 31.36L40.6349 32.802C42.758 33.8666 43.618 36.4541 42.5564 38.5834C41.4949 40.7127 38.9149 41.5752 36.7917 40.5105L33.1905 38.7182C31.8064 38.0174 30.718 36.8584 30.1267 35.4164L28.8367 32.3168L26.2433 41.1439L32.8949 48.4213C33.6205 49.2164 34.1311 50.1732 34.3999 51.2244L37.4905 63.6363C38.0683 65.9408 36.6708 68.2857 34.3595 68.8652C32.0483 69.4447 29.7236 68.0432 29.1458 65.7252L26.1895 53.8523L16.6892 43.4619C14.7005 41.2922 13.9614 38.26 14.7139 35.4164L16.9849 26.8588H16.9983ZM9.23142 53.6367L12.5908 45.2273C12.873 45.6316 13.1955 46.009 13.5314 46.3863L19.0005 52.3699L17.052 57.2484C16.7295 58.057 16.2458 58.7982 15.6277 59.4182L7.33673 67.7332C5.65704 69.4178 2.92923 69.4178 1.24954 67.7332C-0.430145 66.0486 -0.430145 63.3129 1.24954 61.6283L9.23142 53.6367Z" fill="black" fill-opacity="0.33"/>
</g>
<defs>
<clipPath id="clip0_1_77">
<rect width="43" height="69" fill="white"/>
</clipPath>
</defs>
</svg>
