<svg width="42" height="70" viewBox="0 0 42 70" fill="none" xmlns="http://www.w3.org/2000/svg">
<path d="M21 14.0023C21.9194 14.0021 22.8298 13.8207 23.6792 13.4687C24.5285 13.1166 25.3002 12.6007 25.9502 11.9505C26.6001 11.3002 27.1157 10.5283 27.4673 9.67875C27.8189 8.82924 27.9998 7.9188 27.9996 6.99939C27.9993 6.07999 27.818 5.16964 27.466 4.32031C27.1139 3.47098 26.598 2.6993 25.9477 2.04935C25.2974 1.3994 24.5255 0.883889 23.6759 0.532261C22.8264 0.180633 21.9159 -0.000229588 20.9965 2.18723e-07C19.1397 0.000464335 17.359 0.738528 16.0464 2.05183C14.7337 3.36512 13.9965 5.14608 13.997 7.00289C13.9975 8.85971 14.7355 10.6403 16.0489 11.9529C17.3622 13.2656 19.1432 14.0028 21 14.0023V14.0023ZM41.9216 40.5405C40.5742 34.3285 38.2189 24.1339 34.7751 19.9133C31.4258 15.8081 24.6783 15.6366 21 15.6366C17.3218 15.6366 10.5742 15.8081 7.22494 19.9133C3.78116 24.1339 1.42582 34.3285 0.078406 40.5405C-0.667045 43.9807 4.11714 45.2441 5.36656 41.7829C7.22494 36.6278 8.65984 32.2987 11.8026 28.708C13.4545 38.8816 7.35793 56.5866 7.00095 66.4977C7.00035 67.3159 7.2864 68.1083 7.80939 68.7375C8.33237 69.3666 9.05924 69.7926 9.8637 69.9415C10.6682 70.0904 11.4994 69.9528 12.2129 69.5526C12.9264 69.1523 13.4772 68.5148 13.7695 67.7506C15.3689 62.1966 21 46.742 21 46.742C21 46.742 26.6312 62.1966 28.2306 67.7506C28.5228 68.5148 29.0736 69.1523 29.7871 69.5526C30.5007 69.9528 31.3319 70.0904 32.1364 69.9415C32.9408 69.7926 33.6677 69.3666 34.1907 68.7375C34.7137 68.1083 34.9997 67.3159 34.9991 66.4977C34.6421 56.5866 28.5455 38.8816 30.1974 28.7115C33.3402 32.3022 34.7751 36.6313 36.6335 41.7864C37.8794 45.2441 42.6671 43.9807 41.9216 40.5405Z" fill="black" fill-opacity="0.35"/>
</svg>
